HIERARCHY
ROOT Hips
{
	OFFSET -14.64140 90.27770 -84.91600
	CHANNELS 6 Xposition Yposition Zposition Zrotation Xrotation Yrotation
	JOINT Spine
	{
		OFFSET 0.00000 13.20850 -1.60436
		CHANNELS 3 Zrotation Xrotation Yrotation
		JOINT Spine1
		{
			OFFSET 0.00000 8.61716 0.00000
			CHANNELS 3 Zrotation Xrotation Yrotation
			JOINT Spine2
			{
				OFFSET 0.00000 8.61717 0.00000
				CHANNELS 3 Zrotation Xrotation Yrotation
				JOINT Spine3
				{
					OFFSET 0.00000 8.61717 0.00000
					CHANNELS 3 Zrotation Xrotation Yrotation
					JOINT Neck
					{
						OFFSET 0.00000 11.07920 1.10792
						CHANNELS 3 Zrotation Xrotation Yrotation
						JOINT Neck1
						{
							OFFSET 0.00000 7.08032 0.00000
							CHANNELS 3 Zrotation Xrotation Yrotation
							JOINT Head
							{
								OFFSET 0.00000 7.08031 0.00000
								CHANNELS 3 Zrotation Xrotation Yrotation
								End site
								{
									OFFSET 0.00000 0.00000 0.00000
								}
							}
						}
					}
					JOINT RightShoulder
					{
						OFFSET -0.01000 7.91373 5.19711
						CHANNELS 3 Zrotation Xrotation Yrotation
						JOINT RightArm
						{
							OFFSET -18.41580 0.00000 0.00000
							CHANNELS 3 Zrotation Xrotation Yrotation
							JOINT RightForeArm
							{
								OFFSET -29.11090 0.00000 0.00000
								CHANNELS 3 Zrotation Xrotation Yrotation
								JOINT RightHand
								{
									OFFSET -24.65040 0.00000 0.00000
									CHANNELS 3 Zrotation Xrotation Yrotation
									JOINT RightHandThumb1
									{
										OFFSET -5.35114 -0.85590 3.97906
										CHANNELS 3 Zrotation Xrotation Yrotation
										JOINT RightHandThumb2
										{
											OFFSET -4.52789 0.00000 0.00000
											CHANNELS 3 Zrotation Xrotation Yrotation
											JOINT RightHandThumb3
											{
												OFFSET -2.46976 0.00000 0.00000
												CHANNELS 3 Zrotation Xrotation Yrotation
												End site
												{
													OFFSET 0.00000 0.00000 0.00000
												}
											}
										}
									}
									JOINT RightHandIndex1
									{
										OFFSET -14.26970 0.00000 2.88139
										CHANNELS 3 Zrotation Xrotation Yrotation
										JOINT RightHandIndex2
										{
											OFFSET -5.48836 0.00000 0.00000
											CHANNELS 3 Zrotation Xrotation Yrotation
											JOINT RightHandIndex3
											{
												OFFSET -3.01859 0.00000 0.00000
												CHANNELS 3 Zrotation Xrotation Yrotation
												End site
												{
													OFFSET 0.00000 0.00000 0.00000
												}
											}
										}
									}
									JOINT RightHandMiddle1
									{
										OFFSET -14.26970 0.00000 -0.09147
										CHANNELS 3 Zrotation Xrotation Yrotation
										JOINT RightHandMiddle2
										{
											OFFSET -6.17441 0.00000 0.00000
											CHANNELS 3 Zrotation Xrotation Yrotation
											JOINT RightHandMiddle3
											{
												OFFSET -3.56743 0.00000 0.00000
												CHANNELS 3 Zrotation Xrotation Yrotation
												End site
												{
													OFFSET 0.00000 0.00000 0.00000
												}
											}
										}
									}
									JOINT RightHandRing1
									{
										OFFSET -12.69180 0.00000 -3.06433
										CHANNELS 3 Zrotation Xrotation Yrotation
										JOINT RightHandRing2
										{
											OFFSET -5.62556 0.00000 0.00000
											CHANNELS 3 Zrotation Xrotation Yrotation
											JOINT RightHandRing3
											{
												OFFSET -3.56744 0.00000 0.00000
												CHANNELS 3 Zrotation Xrotation Yrotation
												End site
												{
													OFFSET 0.00000 0.00000 0.00000
												}
											}
										}
									}
									JOINT RightHandPinky1
									{
										OFFSET -11.11390 0.00000 -6.03719
										CHANNELS 3 Zrotation Xrotation Yrotation
										JOINT RightHandPinky2
										{
											OFFSET -4.52789 0.00000 0.00000
											CHANNELS 3 Zrotation Xrotation Yrotation
											JOINT RightHandPinky3
											{
												OFFSET -2.46976 0.00000 0.00000
												CHANNELS 3 Zrotation Xrotation Yrotation
												End site
												{
													OFFSET 0.00000 0.00000 0.00000
												}
											}
										}
									}
								}
							}
						}
					}
					JOINT LeftShoulder
					{
						OFFSET 0.01000 7.91373 5.19711
						CHANNELS 3 Zrotation Xrotation Yrotation
						JOINT LeftArm
						{
							OFFSET 18.41580 0.00000 0.00000
							CHANNELS 3 Zrotation Xrotation Yrotation
							JOINT LeftForeArm
							{
								OFFSET 29.11090 0.00000 0.00000
								CHANNELS 3 Zrotation Xrotation Yrotation
								JOINT LeftHand
								{
									OFFSET 24.65040 0.00000 0.00000
									CHANNELS 3 Zrotation Xrotation Yrotation
									JOINT LeftHandThumb1
									{
										OFFSET 5.35114 -0.85590 3.97906
										CHANNELS 3 Zrotation Xrotation Yrotation
										JOINT LeftHandThumb2
										{
											OFFSET 4.52789 0.00000 0.00000
											CHANNELS 3 Zrotation Xrotation Yrotation
											JOINT LeftHandThumb3
											{
												OFFSET 2.46977 0.00000 0.00000
												CHANNELS 3 Zrotation Xrotation Yrotation
												End site
												{
													OFFSET 0.00000 0.00000 0.00000
												}
											}
										}
									}
									JOINT LeftHandIndex1
									{
										OFFSET 14.26970 0.00000 2.88139
										CHANNELS 3 Zrotation Xrotation Yrotation
										JOINT LeftHandIndex2
										{
											OFFSET 5.48836 0.00000 0.00000
											CHANNELS 3 Zrotation Xrotation Yrotation
											JOINT LeftHandIndex3
											{
												OFFSET 3.01859 0.00000 0.00000
												CHANNELS 3 Zrotation Xrotation Yrotation
												End site
												{
													OFFSET 0.00000 0.00000 0.00000
												}
											}
										}
									}
									JOINT LeftHandMiddle1
									{
										OFFSET 14.26970 0.00000 -0.09147
										CHANNELS 3 Zrotation Xrotation Yrotation
										JOINT LeftHandMiddle2
										{
											OFFSET 6.17440 0.00000 0.00000
											CHANNELS 3 Zrotation Xrotation Yrotation
											JOINT LeftHandMiddle3
											{
												OFFSET 3.56744 0.00000 0.00000
												CHANNELS 3 Zrotation Xrotation Yrotation
												End site
												{
													OFFSET 0.00000 0.00000 0.00000
												}
											}
										}
									}
									JOINT LeftHandRing1
									{
										OFFSET 12.69180 0.00000 -3.06433
										CHANNELS 3 Zrotation Xrotation Yrotation
										JOINT LeftHandRing2
										{
											OFFSET 5.62556 0.00000 0.00000
											CHANNELS 3 Zrotation Xrotation Yrotation
											JOINT LeftHandRing3
											{
												OFFSET 3.56744 0.00000 0.00000
												CHANNELS 3 Zrotation Xrotation Yrotation
												End site
												{
													OFFSET 0.00000 0.00000 0.00000
												}
											}
										}
									}
									JOINT LeftHandPinky1
									{
										OFFSET 11.11390 0.00000 -6.03719
										CHANNELS 3 Zrotation Xrotation Yrotation
										JOINT LeftHandPinky2
										{
											OFFSET 4.52789 0.00000 0.00000
											CHANNELS 3 Zrotation Xrotation Yrotation
											JOINT LeftHandPinky3
											{
												OFFSET 2.46976 0.00000 0.00000
												CHANNELS 3 Zrotation Xrotation Yrotation
												End site
												{
													OFFSET 0.00000 0.00000 0.00000
												}
											}
										}
									}
								}
							}
						}
					}
					JOINT pCube4
					{
						OFFSET 0.00000 10.91090 1.10792
						CHANNELS 3 Zrotation Xrotation Yrotation
						End site
						{
							OFFSET 0.00000 0.00000 0.00000
						}
					}
				}
			}
		}
	}
	JOINT RightUpLeg
	{
		OFFSET -9.98441 0.00000 0.00000
		CHANNELS 3 Zrotation Xrotation Yrotation
		JOINT RightLeg
		{
			OFFSET 0.00000 -42.11790 0.00000
			CHANNELS 3 Zrotation Xrotation Yrotation
			JOINT RightFoot
			{
				OFFSET 0.00000 -45.00020 -0.00001
				CHANNELS 3 Zrotation Xrotation Yrotation
				JOINT RightForeFoot
				{
					OFFSET 0.00000 -3.74820 0.00000
					CHANNELS 3 Zrotation Xrotation Yrotation
					JOINT RightToeBase
					{
						OFFSET 0.00000 0.06325 14.43120
						CHANNELS 3 Zrotation Xrotation Yrotation
						End site
						{
							OFFSET 0.00000 0.00000 0.00000
						}
					}
				}
			}
		}
	}
	JOINT LeftUpLeg
	{
		OFFSET 9.98441 0.00000 0.00000
		CHANNELS 3 Zrotation Xrotation Yrotation
		JOINT LeftLeg
		{
			OFFSET 0.00000 -42.11800 0.00000
			CHANNELS 3 Zrotation Xrotation Yrotation
			JOINT LeftFoot
			{
				OFFSET 0.00000 -45.00070 0.00000
				CHANNELS 3 Zrotation Xrotation Yrotation
				JOINT LeftForeFoot
				{
					OFFSET 0.00000 -3.74824 0.00000
					CHANNELS 3 Zrotation Xrotation Yrotation
					JOINT LeftToeBase
					{
						OFFSET 0.00000 0.06325 14.43110
						CHANNELS 3 Zrotation Xrotation Yrotation
						End site
						{
							OFFSET 0.00000 0.00000 0.00000
						}
					}
				}
			}
		}
	}
}
MOTION
Frames: 4
Frame Time: 0.050000
-0.014968641987816101 -0.04263581673714637 -0.0011318376672595706 -0.034461772961993896 -0.009443284381033618 0.010026872760484936 4.570629238533093 3.130245040824287 -2.1672433709994188 -0.7984252601583477 3.5521046965311305 0.40418753135811614 -0.622829488089226 -1.1016851284501668 -0.1526687769091498 -0.35633580938630494 -0.28710199861089336 -0.43906420736513396 -0.19932463218367838 12.297200229397083 -0.960538305424451 0.368951272842506 -0.47676140055173094 -1.4478359607315696 0.6880510441731152 -16.80706329236399 -0.13333703058930152 -9.288656302161886 3.1742997801799717 -18.469702490137028 77.46496670228618 5.420377095539781 -0.12103863854412508 -17.647712331095804 -4.464500492983098 59.28671587333093 22.390570669783852 -0.29160680621930535 -7.2095561254552605 4.490229566443964 -0.10976682415737066 -1.5926144192654075 0.018461193994378768 0.002892211581086746 -56.219005336765704 0.03224276349228627 0.02170396101170495 -56.185120048975215 -38.76619798758243 -0.01905802871731113 -0.020410269190750056 0.030481695162398053 -0.03179649457557073 -0.0330798284263949 -0.020358966959978415 0.01777409113766919 -0.02554499599228298 -36.6750634645504 0.042162657221160464 0.001464576250807996 -0.04718617479043172 -0.0482515561614283 0.022175159711906634 0.010276774743958708 -0.011651387802329558 0.009629514300441783 -19.786516643650412 -0.0333083823957202 0.028748108935819715 0.027907478926489575 -0.013161258103649357 0.03693200007006112 0.026162318543952717 0.01763591734817888 0.049573609032320665 24.03584271864588 0.0032350853513076513 -0.03631080206251503 28.86135339816218 -0.013031863531991211 -0.037415420003775686 28.843793853736525 0.012906870868419514 -0.043596482525641245 10.167895240984615 2.414626166043072 15.283745090264462 -72.67170087346362 19.857511991528156 -13.914687002148655 -40.654031171206704 6.703864402533759 -90.52872976297158 -21.695776894703396 -9.758766051216211 6.5268061939021065 -0.43384164051952945 0.07877665489588104 -8.134650414172762 0.02538100586908302 -0.049463450980751146 44.57851998232972 -0.04920125365535558 -0.015141884470529388 44.594384669115 12.480769205617854 0.004714104853455874 -0.0002772556600029316 0.04435095933618913 -0.002030263870613849 0.023341139203534388 0.04512604885309558 0.03918538269567992 -0.005068404682441322 11.132594069561412 -0.008966159308500553 -0.03654310080363376 0.018094566115423476 -0.00934367339055143 0.03512014244747944 0.045120809431668414 0.010349647517833328 0.00968795712592714 4.761127208277714 0.04690935522575129 -0.04800701764076829 -0.019171635159890812 -0.007401501217667161 -0.016809815544821843 0.010976666305765246 0.017694746282614325 -0.005696773662804756 -5.623550825997822 -0.03728856436386963 -0.041784359600170275 -6.688276759328942 0.012646182084578066 -0.020924228547361003 -6.76408605577647 -0.007306341587861505 0.024810337127403912 -0.027170446467257327 -0.03578160497121195 -0.043236096063987234 8.062812374351504 3.474201057238619 -19.20497445998416 0.03293809782759447 10.435022672651044 0.008597806014281156 -5.621308747669503 -15.65885167062234 3.2356724491025104 -0.011222201419375424 0.043989505258352136 0.039118184526756736 0.000362342011069959 4.664904439979157 -0.028953515636416884 12.476597971727834 -8.196063177023566 6.926333419511421 0.022420756897307687 46.37517613813249 -0.010581115122336782 -4.330754694998983 -14.759348864275626 -3.847830902329062 0.02334932640565707 -0.0006704242617444409 0.0143667217893235 0.01850839034468721 -10.771590077420603 -0.03151681727719722 
0.0075283264044497525 -0.04362728210130699 0.025001904506400958 0.04312653453372185 -0.021235002536378972 0.0028287921651102186 4.4240766076702105 3.136637955671634 -2.0868370193219428 -0.7546645625308062 3.5064727243471663 0.34999273260658514 -0.6687642127424378 -1.1206025396262984 -0.09135934697441919 -0.3726686685354246 -0.29557746193825873 -0.40930981074560696 -0.05215113289063435 12.180387176730864 -1.025970435407324 0.3284320188261654 -0.5231720154288628 -1.5883203322253152 0.7771165518802075 -16.768371171744043 -0.18148250645821198 -9.302096440542554 3.143995005528974 -18.45695367130765 77.74292251968251 5.17730874518607 -0.024108346827679233 -18.006938661412885 -4.692978122050455 59.72884659304395 22.548152274081094 -0.26251788420489763 -7.419790409070572 4.4915361086724 -0.07762543255550675 -1.569399954207531 -0.003179145350470312 -0.022590350465991244 -56.24128019779397 0.028964178142110296 -0.03590104705892171 -56.27366446404265 -38.71997198860415 -0.037682707825343796 0.002237378654920964 -0.0009107105285375108 0.014400344853919462 0.0016536546914223944 -0.0036775087622518605 0.016748519844567315 0.035443193049634614 -36.7096837158978 0.013812869729546979 0.02085064244582182 -0.014841808381020814 0.006081040356058653 -0.02089431768550742 -0.024809844467509824 0.02769257168649917 -0.025751202856856118 -19.756037880362626 -0.015730622171566712 -0.019736871234108676 -0.0031491805132538844 0.033233443049052416 0.03422673535845252 0.03943414702152851 -0.014755532583293185 0.013842781507417523 24.047368711878256 -0.01880301796265638 -0.021991949120100298 28.913349363595646 0.01930018785726454 0.024500607796966892 28.822291577110647 0.027359971213522374 0.04285628441925321 9.980132651981533 2.3268198516335157 15.240562065788566 -73.60555530402704 19.640666468864485 -12.598216876434781 -43.72506956701454 6.847756162017306 -91.0170120662694 -21.71385055974809 -9.854330089246604 6.631907007201272 -0.4380423228289464 0.024549283888012412 -8.1470766830245 0.010215292197742358 -0.014448063104819489 44.54316402038234 0.023628158128602073 0.028875711400917166 44.56758992283619 12.455038187538712 0.040684472905062184 0.01127180250266972 0.0020373085206776866 -0.038816417133756366 -0.0261798555994029 0.03675107953365284 -0.04784228832670224 -0.04099862342682909 11.069044911864623 -0.04264276133200303 -0.007102558275142626 0.0007222771497626838 -0.04053202920326511 0.03634041874758626 -0.023968381369284017 0.036510844097000006 0.01772782881287368 4.743601100913154 -0.039018536729644754 0.0006827819119743135 0.03135110452021715 0.02931881702112339 0.014134075061396025 0.04374701975979184 -0.003552664789275735 0.038746971768260856 -5.623119828222866 0.023787988581433408 0.04968900664770173 -6.737482349052204 0.039677184601169785 0.000894899094371013 -6.727859121063836 -0.0465076551454225 0.006704420785652285 -0.048269021573499424 -0.03853945876620922 0.01670522853311562 8.039090631201896 3.529373449244246 -19.192250316775336 0.02300614265505725 10.350655083667236 0.008524030630086166 -5.600360033475242 -15.68203881760457 3.231131211630185 -0.038815308392207364 0.022037708739341317 0.03245090390032879 0.010590163912840806 4.665353484781002 -0.014117537703444502 12.4301059769852 -8.238105075323748 6.84587120489691 -0.026778204999628494 46.402202642199995 0.02179547720176363 -4.353769129510766 -14.772111555958844 -3.860386952359491 -0.026137131452081363 0.03465643496308165 -0.0463606817897665 -0.012883888105788178 -10.747521276481713 -0.027955989908724072 
0.02810164816054063 -0.022092117699277318 -0.024925635796143344 -0.005096805845719511 -0.0442621812552862 0.005248091358651359 4.277496517401544 3.027812670700261 -2.0964257202475363 -0.7545487033242407 3.5165167657115473 0.36850388015590824 -0.6311383258397927 -1.06052218593945 -0.04486927151599262 -0.4494580831846094 -0.257322913605738 -0.4746245558140637 -0.12452711050704784 12.126142989078314 -1.0273405462451655 0.3730131337237755 -0.5650838666082404 -1.567022152941133 0.7469240426257744 -16.863852409183345 -0.21443009277131123 -9.211250370059684 3.1313461081706504 -18.361524138960007 78.39566935482823 4.183569214658774 0.10945147114205842 -16.77956398943996 -3.9180370136748612 58.43456055257202 22.14633933517921 -0.28454581958448116 -6.964187689570025 4.555753926176261 -0.1738631358595768 -1.5985373305038402 -0.005824765878890715 0.0424689360870735 -56.21805291014962 -0.038860701873842975 0.04901260957607168 -56.270733399352224 -38.742652699092424 0.04829059893573087 0.012914136155703658 -0.019631422152503464 0.015181485850210086 -0.03477756082800595 0.012878466927821125 -0.03162311711749823 0.017554275873279304 -36.70698021702937 -0.02334241621483964 0.012182389844454038 -0.035681347857340555 -0.026793324001017287 0.01597607029919211 0.030083925023653424 -0.0036916026050765804 0.013351955986566707 -19.728923165819 0.047978603052729 0.030676942576944248 0.0438280728109129 0.022785065399882655 -0.040210877167907395 -0.0042560097465586776 0.0049552514682972525 0.017686081030915336 24.041726434168186 0.007340539758301479 -0.037221931494037463 28.91034557892378 0.019020169987434197 0.04446707078520702 28.88026814871634 -0.02933703615564133 -0.04425752819683887 9.812752376844431 2.29045227238467 15.220501900166214 -74.17898066199918 18.90210936757527 -12.047111830454039 -46.47318678809594 6.664324026890738 -91.45389270271211 -21.23974638219392 -9.55587765652937 6.392643495494763 -0.45272059370715567 0.11365438492833928 -8.154639806572423 -0.03830093349819557 0.009614369227984304 44.60024720632844 -0.0033386996853428373 -0.009725129757488474 44.59268444638179 12.485806217714265 0.02785104248868181 0.021651302093029262 -0.015515449361152938 -0.006906973197450389 0.03382902011315062 -0.016363834196974528 0.010068386703095962 0.03334247664462556 11.1555132676895 0.04293628086518074 -0.024420440852150355 -0.006037613592022718 0.015138097745755086 0.029054939122637624 0.002195758251248889 0.037279082034709504 -0.0009664512422382482 4.80682963127022 -0.0056548182234814025 0.010299122978715197 0.01560959643717602 -0.03477240701715275 0.04369625958821233 0.048641024146717934 -0.032147133982730135 0.00534908739588342 -5.56873915123677 0.013335723617736954 0.01623167191377683 -6.765670559285101 -0.01979948671540149 0.013128137378131021 -6.7486155732029705 0.030256778554951638 -0.01228448030450237 0.02998213767052196 0.043649861208420786 -0.004339031019590033 8.019772642116529 3.5395958480598626 -19.225421193090245 0.019667527382092966 10.425856802450204 0.05386830412720493 -5.654025602411084 -15.678891258163707 3.1722173830861435 0.030480341601574208 0.0053240457484743375 -0.04947462017873123 0.002326767449582257 4.7394902175991085 0.0035528052598429332 12.419617162157573 -8.212547399918455 6.862457523596118 0.020234347866142373 46.38400471442446 0.004889592270822192 -4.277757323395189 -14.738051199256216 -3.8215622402079505 0.004504150859254303 -0.006212624577351423 0.0449590569872967 0.03892260435489799 -10.718364774872736 0.018574249551023155 
0.02853228821598515 0.02559670287891931 0.04809296985639606 -0.006852728784132844 0.020138576751189134 0.034933253254398375 4.252887841779737 2.9022262004471933 -2.0631885998294757 -0.7730535715386473 3.5222049327448985 0.36751060436659627 -0.6460973148484874 -1.111044267188654 -0.030578842083875787 -0.44658689992918915 -0.28227910825883046 -0.41523878694075383 -0.16197151874266408 12.078705512500049 -0.8709592078434724 0.39855375965220013 -0.5393533226131952 -1.2974448580457703 0.6948540391626722 -16.807169744523232 -0.10908570233994674 -9.174501357289191 3.1748935942018086 -18.25941097566813 79.14630600487344 2.767893588107231 0.3285632247838421 -14.616584354912245 -2.0558604451397446 55.959966153276184 21.352615930674745 -0.1876680542959663 -6.330903260783391 4.480797787502763 -0.10077074550236531 -1.6269714586156627 -0.003509125709748879 -0.009324297539056822 -56.22549324199958 0.002597084436351492 0.0130349973928438 -56.250230041440616 -38.78248560973456 -0.03145176708864263 0.00026121410149595716 -0.010911760207965644 -0.015373674805862518 0.010226953748156225 -0.0037996573006770142 -0.0033116437999208955 0.007649403205839005 -36.68712535230047 0.004031093326469101 0.04315503549260701 -0.029010569796979722 -0.04672475725943021 0.0031813395350512837 -0.0468675470366406 -0.007895959311602184 -0.046915979645770246 -19.799760045063238 -0.014550539679533306 0.03483102408240756 0.028947306988067294 0.045225692723252435 -0.02916169719396873 -0.0324386612340106 -0.0015167253357132801 0.0011879432542107058 24.059714988214175 0.026837482061372923 -0.031035882644160052 28.90302454309617 -0.028991377297141286 -0.01701898486832496 28.876140502173765 -0.02000521940950317 -0.045650995074890455 9.89598782790171 2.333799217139317 15.227312711816223 -74.48899916678982 17.89193292493815 -12.445007601012 -47.48562056241453 5.977584107167348 -91.52363652794449 -20.41003807691944 -9.107188074168407 5.843439210587322 -0.49843009942628835 0.08042777615207643 -8.111374299752724 0.014973669401917179 0.004244285502191352 44.578873684116104 0.02601587961350685 -0.012636836868758008 44.55188197281176 12.455823274829442 0.034432754527623406 -0.015616768687925926 -0.010121815842063796 0.004700688656864352 -0.03298565187064597 0.01244969801994463 -0.004868140146827924 0.01703078256061966 11.085146484315253 0.03187836305937354 -0.03658468200138993 0.04893978852181427 -0.034493912641904524 -0.045247034595889836 0.02402174015571916 -0.017771033242536607 -0.04402583760889042 4.75872205362249 0.022610603688364747 0.02962851472204232 0.006888542995500591 -0.008159486356437746 -0.020215541849238794 0.01521015568006327 -0.03752398439018087 -0.0378066567979051 -5.566224868656433 0.04525376237436635 -0.032988200925826154 -6.717887611310536 -0.027733196017634347 -0.0032902188322937115 -6.7707726175887695 -0.01878878438151345 -0.012168451532772897 0.0002480999900196484 -0.021821732437122418 0.04459299108778643 8.06928054807137 3.4759502764042614 -19.1949464208921 -0.015110141692853397 10.419929260550536 0.007213073395494695 -5.635294192895729 -15.654662448932514 3.1767890306241857 0.023001841824724267 -0.013778477914793998 0.020018695617775483 0.034841523178323855 4.724884501797684 -0.042336780998228817 12.494165452068763 -8.280532102102647 6.873252516109281 0.04556622583800737 46.387874632101195 -0.04448750962840032 -4.308287852417558 -14.772272841110796 -3.8699610987652644 -0.004748971808021427 -0.002397045238648184 -0.017751493346745494 0.04671233088119569 -10.794463267425023 -0.0006562115992516058 
